<svg width="29" height="26" viewBox="0 0 29 26" fill="none" xmlns="http://www.w3.org/2000/svg">
<path d="M14.2857 5.46728L14.1758 5.26426C13.9798 4.90236 13.7467 4.51816 13.4728 4.13533L13.5745 4.0626L13.4728 4.13533C12.4163 2.65842 10.5433 0.912872 7.58928 0.912872C5.48406 0.912872 3.56321 1.77013 2.17793 3.32687C0.855588 4.81305 0.125 6.80614 0.125 8.94097C0.125 11.2579 1.03666 13.4203 3.01633 15.7522L2.93593 15.8205L3.01633 15.7522C4.78921 17.8406 7.3423 19.9958 10.3122 22.5024L10.2316 22.5979L10.3122 22.5024L10.313 22.5031C11.4183 23.436 12.562 24.4013 13.7797 25.4565L13.7798 25.4565L13.8163 25.4882C13.8163 25.4882 13.8163 25.4882 13.8163 25.4883C13.9505 25.6046 14.1179 25.6629 14.2857 25.6629C14.4535 25.6629 14.6209 25.6046 14.7551 25.4883L14.2857 5.46728ZM14.2857 5.46728L14.3956 5.26426C14.5916 4.90236 14.8248 4.51816 15.0986 4.13532C16.1552 2.65842 18.0281 0.912872 20.9821 0.912872C23.0874 0.912872 25.0082 1.77007 26.3934 3.32682C27.7158 4.81305 28.4464 6.80614 28.4464 8.94097C28.4464 11.2579 27.5348 13.4203 25.5551 15.7522C23.7822 17.8406 21.2291 19.9959 18.2594 22.5023L18.249 22.5111C17.1465 23.4416 16.0059 24.4044 14.7917 25.4565L14.7917 25.4565L14.7552 25.4882L14.2857 5.46728ZM14.2042 23.9535L14.2857 24.0237L14.3673 23.9535C15.4011 23.0634 16.3815 22.2359 17.3347 21.4314L17.3419 21.4253C20.2395 18.9798 22.6566 16.9399 24.348 14.9782C26.0428 13.0126 27.0223 11.1111 27.0223 8.94097C27.0223 7.15403 26.4211 5.48964 25.3242 4.25696L25.2309 4.34005L25.3242 4.25696C24.2133 3.00856 22.6703 2.32096 20.9821 2.32096C18.6294 2.32096 17.1129 3.75799 16.2613 4.94841C15.4972 6.0164 15.0991 7.0917 14.9628 7.50568L14.9628 7.50571C14.8677 7.79508 14.5948 7.99201 14.2857 7.99201C13.9767 7.99201 13.7037 7.79508 13.6086 7.50571L13.6086 7.50568C13.4724 7.0917 13.0742 6.0164 12.3101 4.94846C11.4585 3.75799 9.94202 2.32096 7.58928 2.32096C5.90109 2.32096 4.35809 3.00856 3.24713 4.25695L3.24713 4.25696C2.15029 5.48964 1.54911 7.15403 1.54911 8.94097C1.54911 11.1111 2.52858 13.0126 4.22341 14.9782C5.91482 16.9398 8.33182 18.9798 11.2293 21.4252L11.2366 21.4313C12.1899 22.2359 13.1704 23.0635 14.2042 23.9535Z" fill="#F2F2F2" stroke="black" stroke-width="0.25"/>
</svg>
