<svg width="186" height="56" viewBox="0 0 186 56" fill="none" xmlns="http://www.w3.org/2000/svg">
<path d="M15.6116 22.58C15.6116 29.524 26.3356 28.152 26.3356 31.82C26.3356 33.22 24.9356 33.696 22.6676 33.696C20.4276 33.696 17.9636 33.108 15.7236 31.624V35.628C17.7396 36.748 20.2596 37.392 22.9756 37.392C27.0916 37.392 30.6196 36.02 30.6196 31.624C30.6196 24.652 19.8956 25.912 19.8956 22.524C19.8956 21.32 20.9596 20.732 23.0876 20.704C25.2716 20.676 27.4836 21.264 29.1356 22.44V18.52C27.4556 17.568 25.1036 17.008 22.7796 17.008C18.9156 17.008 15.6116 18.8 15.6116 22.58ZM32.3681 27.2C32.3681 32.52 35.8401 37.392 42.7841 37.392C49.7281 37.392 53.2001 32.52 53.2001 27.2C53.2001 21.88 49.7281 17.008 42.7841 17.008C35.8401 17.008 32.3681 21.88 32.3681 27.2ZM48.8881 27.2C48.8881 30.644 46.8441 33.5 42.7841 33.5C38.6961 33.5 36.6521 30.644 36.6521 27.2C36.6521 23.756 38.6961 20.9 42.7841 20.9C46.8441 20.9 48.8881 23.756 48.8881 27.2ZM69.1435 17.4V29.412C69.1435 32.52 67.3515 33.612 64.7195 33.612C62.1155 33.612 60.3235 32.52 60.3235 29.412V17.4H56.1235V29.636C56.1235 35.432 60.3795 37.392 64.7195 37.392C69.0595 37.392 73.3155 35.432 73.3155 29.636V17.4H69.1435ZM81.5195 37V26.892C81.5195 25.996 81.4915 25.016 81.4355 24.204L90.5635 37H94.5115V17.4H90.3115V27.508C90.3115 28.404 90.3395 29.384 90.3955 30.196L81.2675 17.4H77.3195V37H81.5195ZM98.4223 17.4V37H105.758C112.73 37 116.034 32.884 116.034 27.2C116.034 21.516 112.73 17.4 105.758 17.4H98.4223ZM111.75 27.2C111.75 31.232 109.65 33.304 105.758 33.304H102.622V21.096H105.758C109.65 21.096 111.75 23.168 111.75 27.2ZM123.124 37V28.992H126.288L131.636 37H136.284L129.564 26.948L135.92 17.4H131.244L126.288 25.184H123.124V17.4H118.924V37H123.124ZM138.283 17.4V37H142.483V17.4H138.283ZM150.877 37V26.892C150.877 25.996 150.849 25.016 150.793 24.204L159.921 37H163.869V17.4H159.669V27.508C159.669 28.404 159.697 29.384 159.753 30.196L150.625 17.4H146.677V37H150.877ZM166.996 27.2C166.996 34.396 172.288 37.392 177.776 37.392C179.96 37.392 182.2 36.916 184.16 36.076V26.36H180.156V33.36C179.568 33.584 178.84 33.724 178 33.724C175.116 33.724 171.28 32.408 171.28 27.2C171.28 22.608 174.724 20.76 178.224 20.76C180.212 20.76 182.2 21.292 183.684 22.272V18.268C181.864 17.456 179.764 17.008 177.664 17.008C172.288 17.008 166.996 20.088 166.996 27.2Z" fill="#F2F2F2"/>
<path fill-rule="evenodd" clip-rule="evenodd" d="M28.2539 0C20.7069 0 13.6061 2.912 8.27307 8.19949C2.93813 13.4852 0 20.5213 0 28C0 35.4787 2.93813 42.5148 8.27307 47.8023C13.6061 53.088 20.7069 56 28.2539 56H41.6304C49.1904 56 55.3467 49.8996 55.3467 42.4083C55.3467 41.5086 54.6205 40.7897 53.7133 40.7897H29.5605C28.6533 40.7897 27.9272 41.5086 27.9272 42.4083C27.9272 46.5541 29.8013 50.2699 32.7656 52.7646H28.2539C14.4779 52.7646 3.2648 41.6532 3.2648 28C3.2648 14.3486 14.4779 3.23716 28.2539 3.23716C28.3621 3.23716 28.4704 3.22452 28.5805 3.20103C28.6888 3.22452 28.7971 3.23716 28.9072 3.23716H33.4189C30.4547 5.73006 28.5805 9.44594 28.5805 13.5917C28.5805 14.4914 29.3067 15.2103 30.2139 15.2103H54.3667C55.2739 15.2103 56 14.4914 56 13.5917C56 6.10039 49.8437 0 42.2837 0H28.9072C28.7971 0 28.6888 0.0126495 28.5805 0.0361328C28.4704 0.0126495 28.3621 0 28.2539 0ZM31.3133 44.0377H51.9475C51.1616 48.9765 46.8309 52.7755 41.6304 52.7755C36.4299 52.7646 32.0992 48.9765 31.3133 44.0377ZM52.6008 11.9623H31.9667C32.7525 7.02348 37.0832 3.22452 42.2837 3.22452C47.4973 3.23716 51.8149 7.02348 52.6008 11.9623Z" fill="#F2F2F2"/>
</svg>
