<svg width="25" height="25" viewBox="0 0 25 25" fill="none" xmlns="http://www.w3.org/2000/svg">
<path d="M23.9404 24.2009L16.9269 16.9071C18.7158 15.113 19.824 12.6397 19.824 9.91202C19.824 4.44625 15.3778 0 9.91202 0C4.44625 0 0 4.44625 0 9.91202C0 15.3778 4.44625 19.824 9.91202 19.824C12.3112 19.824 14.5131 18.9664 16.2293 17.5433L23.2597 24.8551C23.3522 24.9519 23.4759 25 23.6 25C23.718 25 23.8356 24.9561 23.9271 24.8683C24.115 24.6875 24.1207 24.3888 23.9404 24.2009ZM9.91202 18.88C4.96687 18.88 0.944002 14.8572 0.944002 9.91202C0.944002 4.96687 4.96687 0.944002 9.91202 0.944002C14.8572 0.944002 18.88 4.96687 18.88 9.91202C18.88 14.8572 14.8567 18.88 9.91202 18.88Z" fill="#F2F2F2"/>
</svg>
