<svg width="21" height="21" viewBox="0 0 21 21" fill="none" xmlns="http://www.w3.org/2000/svg">
<path fill-rule="evenodd" clip-rule="evenodd" d="M18.4976 16.8987C18.4976 17.3512 18.1301 17.7188 17.6775 17.7188C17.2239 17.7188 16.8575 17.3512 16.8575 16.8987C16.8575 16.4451 17.2239 16.0776 17.6775 16.0776C18.1301 16.0776 18.4976 16.4451 18.4976 16.8987ZM20.3813 19.6791C20.0316 20.4823 19.2399 21 18.3642 21C18.3621 21 18.3611 21 18.359 21H15.7697C14.8719 20.9979 14.0708 20.4571 13.7264 19.6213C13.5972 19.3095 13.488 18.964 13.3935 18.5661C13.2875 18.1251 13.5594 17.683 14.0004 17.577C14.4404 17.472 14.8835 17.7429 14.9885 18.1839C15.0641 18.4979 15.147 18.7635 15.2426 18.9955C15.3318 19.2129 15.545 19.3588 15.7718 19.3588H18.3611H18.3621C18.5868 19.3588 18.7884 19.2276 18.8777 19.0239C19.0982 18.5167 19.3607 17.7366 19.3586 16.8945C19.3565 16.0587 19.094 15.2964 18.8735 14.8039C18.7842 14.6034 18.5847 14.4795 18.3527 14.4784H15.7949C15.7938 14.4784 15.7938 14.4784 15.7928 14.4784C15.5492 14.4784 15.3497 14.6065 15.2699 14.8134C15.1502 15.1263 15.0662 15.3867 15 15.6576C14.9108 16.0251 14.5811 16.2834 14.2031 16.2834H8.56455L7.9545 16.9102L8.58765 17.5549H10.9092C11.3628 17.5549 11.7303 17.9214 11.7303 18.375C11.7303 18.8275 11.3628 19.195 10.9092 19.195H8.24325C8.0238 19.195 7.81276 19.1068 7.6584 18.9504L6.22305 17.4888C5.9112 17.1717 5.9091 16.6624 6.2199 16.3432L7.629 14.8911C7.78335 14.7325 7.99545 14.6422 8.217 14.6422H13.5878C13.6434 14.4774 13.6959 14.3367 13.739 14.2243C14.0634 13.3812 14.8677 12.8373 15.7907 12.8373C15.7928 12.8373 15.7949 12.8373 15.7959 12.8373H18.3548C19.2294 12.8394 20.0201 13.3486 20.3718 14.134C20.6564 14.7714 20.9966 15.7678 20.9997 16.8913C21.0018 18.018 20.6648 19.0292 20.3813 19.6791ZM13.8398 10.0422C13.9773 10.0884 14.1138 10.1356 14.2503 10.1871C14.6745 10.3456 14.8887 10.8192 14.7302 11.2434C14.5706 11.6676 14.097 11.8818 13.6728 11.7222C12.7257 11.3662 11.7303 11.1751 10.7108 11.1521C10.6404 11.1542 10.5701 11.1562 10.4997 11.1562C10.4294 11.1562 10.3601 11.1542 10.2908 11.1521C6.12225 11.2486 2.5113 14.2369 1.6587 18.3288C1.6062 18.5839 1.6692 18.8464 1.833 19.047C1.9275 19.1635 2.13855 19.3588 2.48925 19.3588H5.39356C5.84611 19.3588 6.2136 19.7263 6.2136 20.1799C6.2136 20.6325 5.84611 21 5.39356 21H2.48925C1.73745 21 1.03395 20.665 0.560405 20.0823C0.0837049 19.4964 -0.101095 18.7351 0.0532549 17.9949C0.544655 15.6292 1.8498 13.4778 3.7251 11.9343C4.7478 11.0932 5.9175 10.4559 7.1628 10.0454C5.80305 9.02685 4.92105 7.40355 4.92105 5.5776C4.92105 2.50215 7.42425 0 10.4997 0C13.5752 0 16.0773 2.50215 16.0773 5.5776C16.0773 7.4025 15.1974 9.02475 13.8398 10.0422ZM10.4997 1.6401C8.3283 1.6401 6.5622 3.40725 6.5622 5.5776C6.5622 7.68495 8.2254 9.4101 10.3076 9.5109C10.3716 9.50985 10.4357 9.5088 10.4997 9.5088C10.5638 9.5088 10.6278 9.50985 10.6908 9.5109C12.774 9.4101 14.4372 7.68495 14.4372 5.5776C14.4372 3.40725 12.6711 1.6401 10.4997 1.6401Z" fill="#F2F2F2"/>
</svg>
